# xmcd CD database file generated by OrangeCD 5.2
#
# Track frame offsets:
#	150
#	12822
#	23420
#	32024
#	42250
#	55712
#	68581
#	80240
#	93343
#	107067
#	118926
#	131248
#	143178
#	155696
#	166430
#	174840
#	187696
#	199296
#	212023
#
# Disc length: 2987 seconds
#
# Revision: 0
# Processed by: cddbd v1.5.1PL0 Copyright (c) Steve Scherf et al.
# Submitted via: OrangeCD 5.2
#
DISCID=fd0ba913
DTITLE=Various Artist - The Real Blues Brothers Volume 2
DYEAR=1998
DGENRE=Blues Brothers
TTITLE0=Brownie McGhee and His Jook Block Busters - Easy My Worried Mind
TTITLE1=Hubert Sumlin - Late In The Evening
TTITLE2=Rosco Gordon - What You Got On Your Mind
TTITLE3=Charles Brantley - Boogie Me Baby
TTITLE4=Sam "Lightnin" Hopkins - See That My Grave Is Kept Clean
TTITLE5=Champion Jack Dupree - Somebody Done Changed The Lock On My Door
TTITLE6=Connie McBooker - Rich Woman Blues
TTITLE7=L.C. Williams - Lazy J.
TTITLE8=Sonny "Hootin" Terry and His Night Owls - Crying Blues
TTITLE9=Perry Cain - Reckless
TTITLE10=Lightin' Jr. and The Empires - Ragged And Hungry
TTITLE11=Goree Carter - Bull Corn
TTITLE12=The Roosevelts - Jitterbug Special 
TTITLE13=Teddy Reynolds - Suicide Blues
TTITLE14=Sam "Lightnin" Hopkins - Worried Life Blues
TTITLE15=The Roosevelts - Coon Can Annie
TTITLE16=Perry Cain - Hurry Home Baby
TTITLE17=Clayton and The Dreamers - I Wonder
TTITLE18=The Harmony Kings - Search Me Lord
EXTD=
EXTT0=
EXTT1=
EXTT2=
EXTT3=
EXTT4=
EXTT5=
EXTT6=
EXTT7=
EXTT8=
EXTT9=
EXTT10=
EXTT11=
EXTT12=
EXTT13=
EXTT14=
EXTT15=
EXTT16=
EXTT17=
EXTT18=
PLAYORDER=
